<mxfile host="app.diagrams.net" modified="2023-09-10T02:29:42.397Z" agent="Mozilla/5.0 (Macintosh; Intel Mac OS X 10_15_7) AppleWebKit/537.36 (KHTML, like Gecko) Chrome/116.0.0.0 Safari/537.36" etag="Ft8jjJN7cbvSmia-JLPh" version="21.7.4" type="google">
  <diagram name="Page-1" id="N1-4s-G9A0mcIYN5zlun">
    <mxGraphModel grid="0" page="1" gridSize="10" guides="1" tooltips="1" connect="1" arrows="1" fold="1" pageScale="1" pageWidth="850" pageHeight="1100" math="0" shadow="0">
      <root>
        <mxCell id="0" />
        <mxCell id="1" parent="0" />
        <mxCell id="skd1Zbq_4m3j6IIo1_Uc-10" value="00" style="rounded=1;whiteSpace=wrap;html=1;" vertex="1" parent="1">
          <mxGeometry x="422" y="159" width="80" height="60" as="geometry" />
        </mxCell>
        <mxCell id="skd1Zbq_4m3j6IIo1_Uc-11" value="00" style="rounded=1;whiteSpace=wrap;html=1;" vertex="1" parent="1">
          <mxGeometry x="502" y="159" width="80" height="60" as="geometry" />
        </mxCell>
        <mxCell id="skd1Zbq_4m3j6IIo1_Uc-12" value="00" style="rounded=1;whiteSpace=wrap;html=1;" vertex="1" parent="1">
          <mxGeometry x="582" y="159" width="80" height="60" as="geometry" />
        </mxCell>
        <mxCell id="skd1Zbq_4m3j6IIo1_Uc-13" value="00" style="rounded=1;whiteSpace=wrap;html=1;" vertex="1" parent="1">
          <mxGeometry x="662" y="159" width="80" height="60" as="geometry" />
        </mxCell>
        <mxCell id="skd1Zbq_4m3j6IIo1_Uc-14" value="&lt;font color=&quot;#ff3333&quot;&gt;04&lt;/font&gt;" style="rounded=1;whiteSpace=wrap;html=1;" vertex="1" parent="1">
          <mxGeometry x="262" y="159" width="80" height="60" as="geometry" />
        </mxCell>
        <mxCell id="skd1Zbq_4m3j6IIo1_Uc-15" value="00" style="rounded=1;whiteSpace=wrap;html=1;" vertex="1" parent="1">
          <mxGeometry x="342" y="159" width="80" height="60" as="geometry" />
        </mxCell>
        <mxCell id="skd1Zbq_4m3j6IIo1_Uc-16" value="&lt;font color=&quot;#ff3333&quot;&gt;02&lt;/font&gt;" style="rounded=1;whiteSpace=wrap;html=1;" vertex="1" parent="1">
          <mxGeometry x="102" y="159" width="80" height="60" as="geometry" />
        </mxCell>
        <mxCell id="skd1Zbq_4m3j6IIo1_Uc-17" value="00" style="rounded=1;whiteSpace=wrap;html=1;" vertex="1" parent="1">
          <mxGeometry x="182" y="159" width="80" height="60" as="geometry" />
        </mxCell>
        <mxCell id="skd1Zbq_4m3j6IIo1_Uc-18" value="Modifier" style="text;html=1;strokeColor=none;fillColor=none;align=center;verticalAlign=middle;whiteSpace=wrap;rounded=0;" vertex="1" parent="1">
          <mxGeometry x="112" y="119" width="60" height="30" as="geometry" />
        </mxCell>
        <mxCell id="skd1Zbq_4m3j6IIo1_Uc-19" value="OEM" style="text;html=1;strokeColor=none;fillColor=none;align=center;verticalAlign=middle;whiteSpace=wrap;rounded=0;" vertex="1" parent="1">
          <mxGeometry x="192" y="119" width="60" height="30" as="geometry" />
        </mxCell>
        <mxCell id="skd1Zbq_4m3j6IIo1_Uc-20" value="Key1" style="text;html=1;strokeColor=none;fillColor=none;align=center;verticalAlign=middle;whiteSpace=wrap;rounded=0;" vertex="1" parent="1">
          <mxGeometry x="272" y="119" width="60" height="30" as="geometry" />
        </mxCell>
        <mxCell id="skd1Zbq_4m3j6IIo1_Uc-21" value="Key2" style="text;html=1;strokeColor=none;fillColor=none;align=center;verticalAlign=middle;whiteSpace=wrap;rounded=0;" vertex="1" parent="1">
          <mxGeometry x="352" y="119" width="60" height="30" as="geometry" />
        </mxCell>
        <mxCell id="skd1Zbq_4m3j6IIo1_Uc-22" value="Key3" style="text;html=1;strokeColor=none;fillColor=none;align=center;verticalAlign=middle;whiteSpace=wrap;rounded=0;" vertex="1" parent="1">
          <mxGeometry x="432" y="119" width="60" height="30" as="geometry" />
        </mxCell>
        <mxCell id="skd1Zbq_4m3j6IIo1_Uc-23" value="Key4" style="text;html=1;strokeColor=none;fillColor=none;align=center;verticalAlign=middle;whiteSpace=wrap;rounded=0;" vertex="1" parent="1">
          <mxGeometry x="512" y="119" width="60" height="30" as="geometry" />
        </mxCell>
        <mxCell id="skd1Zbq_4m3j6IIo1_Uc-24" value="Key5" style="text;html=1;strokeColor=none;fillColor=none;align=center;verticalAlign=middle;whiteSpace=wrap;rounded=0;" vertex="1" parent="1">
          <mxGeometry x="592" y="119" width="60" height="30" as="geometry" />
        </mxCell>
        <mxCell id="skd1Zbq_4m3j6IIo1_Uc-25" value="Key6" style="text;html=1;strokeColor=none;fillColor=none;align=center;verticalAlign=middle;whiteSpace=wrap;rounded=0;" vertex="1" parent="1">
          <mxGeometry x="672" y="119" width="60" height="30" as="geometry" />
        </mxCell>
        <mxCell id="skd1Zbq_4m3j6IIo1_Uc-26" value="&lt;font style=&quot;font-size: 39px;&quot;&gt;Left Shift + a = A&lt;/font&gt;" style="text;html=1;strokeColor=none;fillColor=none;align=center;verticalAlign=middle;whiteSpace=wrap;rounded=0;" vertex="1" parent="1">
          <mxGeometry x="260" y="63" width="325" height="30" as="geometry" />
        </mxCell>
        <mxCell id="skd1Zbq_4m3j6IIo1_Uc-28" value="00" style="rounded=1;whiteSpace=wrap;html=1;" vertex="1" parent="1">
          <mxGeometry x="422" y="347" width="80" height="60" as="geometry" />
        </mxCell>
        <mxCell id="skd1Zbq_4m3j6IIo1_Uc-29" value="00" style="rounded=1;whiteSpace=wrap;html=1;" vertex="1" parent="1">
          <mxGeometry x="502" y="347" width="80" height="60" as="geometry" />
        </mxCell>
        <mxCell id="skd1Zbq_4m3j6IIo1_Uc-30" value="00" style="rounded=1;whiteSpace=wrap;html=1;" vertex="1" parent="1">
          <mxGeometry x="582" y="347" width="80" height="60" as="geometry" />
        </mxCell>
        <mxCell id="skd1Zbq_4m3j6IIo1_Uc-31" value="00" style="rounded=1;whiteSpace=wrap;html=1;" vertex="1" parent="1">
          <mxGeometry x="662" y="347" width="80" height="60" as="geometry" />
        </mxCell>
        <mxCell id="skd1Zbq_4m3j6IIo1_Uc-32" value="&lt;font color=&quot;#ff3333&quot;&gt;OE&lt;/font&gt;" style="rounded=1;whiteSpace=wrap;html=1;" vertex="1" parent="1">
          <mxGeometry x="262" y="347" width="80" height="60" as="geometry" />
        </mxCell>
        <mxCell id="skd1Zbq_4m3j6IIo1_Uc-33" value="00" style="rounded=1;whiteSpace=wrap;html=1;" vertex="1" parent="1">
          <mxGeometry x="342" y="347" width="80" height="60" as="geometry" />
        </mxCell>
        <mxCell id="skd1Zbq_4m3j6IIo1_Uc-34" value="00" style="rounded=1;whiteSpace=wrap;html=1;" vertex="1" parent="1">
          <mxGeometry x="102" y="347" width="80" height="60" as="geometry" />
        </mxCell>
        <mxCell id="skd1Zbq_4m3j6IIo1_Uc-35" value="00" style="rounded=1;whiteSpace=wrap;html=1;" vertex="1" parent="1">
          <mxGeometry x="182" y="347" width="80" height="60" as="geometry" />
        </mxCell>
        <mxCell id="skd1Zbq_4m3j6IIo1_Uc-36" value="Modifier" style="text;html=1;strokeColor=none;fillColor=none;align=center;verticalAlign=middle;whiteSpace=wrap;rounded=0;" vertex="1" parent="1">
          <mxGeometry x="112" y="307" width="60" height="30" as="geometry" />
        </mxCell>
        <mxCell id="skd1Zbq_4m3j6IIo1_Uc-37" value="OEM" style="text;html=1;strokeColor=none;fillColor=none;align=center;verticalAlign=middle;whiteSpace=wrap;rounded=0;" vertex="1" parent="1">
          <mxGeometry x="192" y="307" width="60" height="30" as="geometry" />
        </mxCell>
        <mxCell id="skd1Zbq_4m3j6IIo1_Uc-38" value="Key1" style="text;html=1;strokeColor=none;fillColor=none;align=center;verticalAlign=middle;whiteSpace=wrap;rounded=0;" vertex="1" parent="1">
          <mxGeometry x="272" y="307" width="60" height="30" as="geometry" />
        </mxCell>
        <mxCell id="skd1Zbq_4m3j6IIo1_Uc-39" value="Key2" style="text;html=1;strokeColor=none;fillColor=none;align=center;verticalAlign=middle;whiteSpace=wrap;rounded=0;" vertex="1" parent="1">
          <mxGeometry x="352" y="307" width="60" height="30" as="geometry" />
        </mxCell>
        <mxCell id="skd1Zbq_4m3j6IIo1_Uc-40" value="Key3" style="text;html=1;strokeColor=none;fillColor=none;align=center;verticalAlign=middle;whiteSpace=wrap;rounded=0;" vertex="1" parent="1">
          <mxGeometry x="432" y="307" width="60" height="30" as="geometry" />
        </mxCell>
        <mxCell id="skd1Zbq_4m3j6IIo1_Uc-41" value="Key4" style="text;html=1;strokeColor=none;fillColor=none;align=center;verticalAlign=middle;whiteSpace=wrap;rounded=0;" vertex="1" parent="1">
          <mxGeometry x="512" y="307" width="60" height="30" as="geometry" />
        </mxCell>
        <mxCell id="skd1Zbq_4m3j6IIo1_Uc-42" value="Key5" style="text;html=1;strokeColor=none;fillColor=none;align=center;verticalAlign=middle;whiteSpace=wrap;rounded=0;" vertex="1" parent="1">
          <mxGeometry x="592" y="307" width="60" height="30" as="geometry" />
        </mxCell>
        <mxCell id="skd1Zbq_4m3j6IIo1_Uc-43" value="Key6" style="text;html=1;strokeColor=none;fillColor=none;align=center;verticalAlign=middle;whiteSpace=wrap;rounded=0;" vertex="1" parent="1">
          <mxGeometry x="672" y="307" width="60" height="30" as="geometry" />
        </mxCell>
        <mxCell id="skd1Zbq_4m3j6IIo1_Uc-44" value="&lt;span style=&quot;font-size: 39px;&quot;&gt;k&lt;/span&gt;" style="text;html=1;strokeColor=none;fillColor=none;align=center;verticalAlign=middle;whiteSpace=wrap;rounded=0;" vertex="1" parent="1">
          <mxGeometry x="260" y="251" width="325" height="30" as="geometry" />
        </mxCell>
        <mxCell id="skd1Zbq_4m3j6IIo1_Uc-45" value="00" style="rounded=1;whiteSpace=wrap;html=1;" vertex="1" parent="1">
          <mxGeometry x="422" y="718" width="80" height="60" as="geometry" />
        </mxCell>
        <mxCell id="skd1Zbq_4m3j6IIo1_Uc-46" value="00" style="rounded=1;whiteSpace=wrap;html=1;" vertex="1" parent="1">
          <mxGeometry x="502" y="718" width="80" height="60" as="geometry" />
        </mxCell>
        <mxCell id="skd1Zbq_4m3j6IIo1_Uc-47" value="00" style="rounded=1;whiteSpace=wrap;html=1;" vertex="1" parent="1">
          <mxGeometry x="582" y="718" width="80" height="60" as="geometry" />
        </mxCell>
        <mxCell id="skd1Zbq_4m3j6IIo1_Uc-48" value="00" style="rounded=1;whiteSpace=wrap;html=1;" vertex="1" parent="1">
          <mxGeometry x="662" y="718" width="80" height="60" as="geometry" />
        </mxCell>
        <mxCell id="skd1Zbq_4m3j6IIo1_Uc-49" value="&lt;font color=&quot;#ff3333&quot;&gt;1E&lt;/font&gt;" style="rounded=1;whiteSpace=wrap;html=1;" vertex="1" parent="1">
          <mxGeometry x="262" y="718" width="80" height="60" as="geometry" />
        </mxCell>
        <mxCell id="skd1Zbq_4m3j6IIo1_Uc-50" value="00" style="rounded=1;whiteSpace=wrap;html=1;" vertex="1" parent="1">
          <mxGeometry x="342" y="718" width="80" height="60" as="geometry" />
        </mxCell>
        <mxCell id="skd1Zbq_4m3j6IIo1_Uc-51" value="&lt;font color=&quot;#ff3333&quot;&gt;02&lt;/font&gt;" style="rounded=1;whiteSpace=wrap;html=1;" vertex="1" parent="1">
          <mxGeometry x="102" y="718" width="80" height="60" as="geometry" />
        </mxCell>
        <mxCell id="skd1Zbq_4m3j6IIo1_Uc-52" value="00" style="rounded=1;whiteSpace=wrap;html=1;" vertex="1" parent="1">
          <mxGeometry x="182" y="718" width="80" height="60" as="geometry" />
        </mxCell>
        <mxCell id="skd1Zbq_4m3j6IIo1_Uc-53" value="Modifier" style="text;html=1;strokeColor=none;fillColor=none;align=center;verticalAlign=middle;whiteSpace=wrap;rounded=0;" vertex="1" parent="1">
          <mxGeometry x="112" y="678" width="60" height="30" as="geometry" />
        </mxCell>
        <mxCell id="skd1Zbq_4m3j6IIo1_Uc-54" value="OEM" style="text;html=1;strokeColor=none;fillColor=none;align=center;verticalAlign=middle;whiteSpace=wrap;rounded=0;" vertex="1" parent="1">
          <mxGeometry x="192" y="678" width="60" height="30" as="geometry" />
        </mxCell>
        <mxCell id="skd1Zbq_4m3j6IIo1_Uc-55" value="Key1" style="text;html=1;strokeColor=none;fillColor=none;align=center;verticalAlign=middle;whiteSpace=wrap;rounded=0;" vertex="1" parent="1">
          <mxGeometry x="272" y="678" width="60" height="30" as="geometry" />
        </mxCell>
        <mxCell id="skd1Zbq_4m3j6IIo1_Uc-56" value="Key2" style="text;html=1;strokeColor=none;fillColor=none;align=center;verticalAlign=middle;whiteSpace=wrap;rounded=0;" vertex="1" parent="1">
          <mxGeometry x="352" y="678" width="60" height="30" as="geometry" />
        </mxCell>
        <mxCell id="skd1Zbq_4m3j6IIo1_Uc-57" value="Key3" style="text;html=1;strokeColor=none;fillColor=none;align=center;verticalAlign=middle;whiteSpace=wrap;rounded=0;" vertex="1" parent="1">
          <mxGeometry x="432" y="678" width="60" height="30" as="geometry" />
        </mxCell>
        <mxCell id="skd1Zbq_4m3j6IIo1_Uc-58" value="Key4" style="text;html=1;strokeColor=none;fillColor=none;align=center;verticalAlign=middle;whiteSpace=wrap;rounded=0;" vertex="1" parent="1">
          <mxGeometry x="512" y="678" width="60" height="30" as="geometry" />
        </mxCell>
        <mxCell id="skd1Zbq_4m3j6IIo1_Uc-59" value="Key5" style="text;html=1;strokeColor=none;fillColor=none;align=center;verticalAlign=middle;whiteSpace=wrap;rounded=0;" vertex="1" parent="1">
          <mxGeometry x="592" y="678" width="60" height="30" as="geometry" />
        </mxCell>
        <mxCell id="skd1Zbq_4m3j6IIo1_Uc-60" value="Key6" style="text;html=1;strokeColor=none;fillColor=none;align=center;verticalAlign=middle;whiteSpace=wrap;rounded=0;" vertex="1" parent="1">
          <mxGeometry x="672" y="678" width="60" height="30" as="geometry" />
        </mxCell>
        <mxCell id="skd1Zbq_4m3j6IIo1_Uc-61" value="&lt;font style=&quot;font-size: 39px;&quot;&gt;Left Shift + 1 = !&lt;/font&gt;" style="text;html=1;strokeColor=none;fillColor=none;align=center;verticalAlign=middle;whiteSpace=wrap;rounded=0;" vertex="1" parent="1">
          <mxGeometry x="260" y="622" width="325" height="30" as="geometry" />
        </mxCell>
      </root>
    </mxGraphModel>
  </diagram>
</mxfile>
